<?xml version="1.0" standalone="no"?><!DOCTYPE svg PUBLIC "-//W3C//DTD SVG 1.1//EN" "http://www.w3.org/Graphics/SVG/1.1/DTD/svg11.dtd"><svg t="1731635977250" class="icon" viewBox="0 0 1024 1024" version="1.1" xmlns="http://www.w3.org/2000/svg" p-id="7563" width="128" height="128" xmlns:xlink="http://www.w3.org/1999/xlink"><path d="M690.556386 244.561153H333.970915c-147.701601 0-267.433727 119.736222-267.433727 267.438847 0 147.697506 119.732126 267.438847 267.433727 267.438847h356.584447c147.706721 0 267.442942-119.741341 267.442942-267.438847 0.001024-147.701601-119.736222-267.438847-267.441918-267.438847z m0 490.295679H333.970915c-123.084327 0-222.866047-99.772505-222.866047-222.856832 0-123.088422 99.78172-222.870143 222.866047-222.870143h356.584447c123.084327 0 222.866047 99.78172 222.866047 222.870143 0 123.084327-99.780697 222.856832-222.865023 222.856832zM333.970915 333.702657c-98.466028 0-178.292223 79.826195-178.292223 178.297343s79.826195 178.288128 178.292223 178.288128c98.471147 0 178.297343-79.81698 178.297343-178.288128s-79.826195-178.297343-178.297343-178.297343z" fill="#323333" p-id="7564"></path></svg>